<svg id="visual" viewBox="0 0 900 600" width="900" height="600" xmlns="http://www.w3.org/2000/svg" xmlns:xlink="http://www.w3.org/1999/xlink" version="1.1"><rect x="0" y="0" width="900" height="600" fill="#fff8f2"></rect><defs><linearGradient id="grad1_0" x1="33.3%" y1="0%" x2="100%" y2="100%"><stop offset="20%" stop-color="#fbae3c" stop-opacity="1"></stop><stop offset="80%" stop-color="#fbae3c" stop-opacity="1"></stop></linearGradient></defs><defs><linearGradient id="grad1_1" x1="33.3%" y1="0%" x2="100%" y2="100%"><stop offset="20%" stop-color="#fbae3c" stop-opacity="1"></stop><stop offset="80%" stop-color="#ffc06d" stop-opacity="1"></stop></linearGradient></defs><defs><linearGradient id="grad1_2" x1="33.3%" y1="0%" x2="100%" y2="100%"><stop offset="20%" stop-color="#ffd29a" stop-opacity="1"></stop><stop offset="80%" stop-color="#ffc06d" stop-opacity="1"></stop></linearGradient></defs><defs><linearGradient id="grad1_3" x1="33.3%" y1="0%" x2="100%" y2="100%"><stop offset="20%" stop-color="#ffd29a" stop-opacity="1"></stop><stop offset="80%" stop-color="#ffe5c6" stop-opacity="1"></stop></linearGradient></defs><defs><linearGradient id="grad1_4" x1="33.3%" y1="0%" x2="100%" y2="100%"><stop offset="20%" stop-color="#fff8f2" stop-opacity="1"></stop><stop offset="80%" stop-color="#ffe5c6" stop-opacity="1"></stop></linearGradient></defs><defs><linearGradient id="grad2_0" x1="0%" y1="0%" x2="66.7%" y2="100%"><stop offset="20%" stop-color="#fbae3c" stop-opacity="1"></stop><stop offset="80%" stop-color="#fbae3c" stop-opacity="1"></stop></linearGradient></defs><defs><linearGradient id="grad2_1" x1="0%" y1="0%" x2="66.7%" y2="100%"><stop offset="20%" stop-color="#ffc06d" stop-opacity="1"></stop><stop offset="80%" stop-color="#fbae3c" stop-opacity="1"></stop></linearGradient></defs><defs><linearGradient id="grad2_2" x1="0%" y1="0%" x2="66.7%" y2="100%"><stop offset="20%" stop-color="#ffc06d" stop-opacity="1"></stop><stop offset="80%" stop-color="#ffd29a" stop-opacity="1"></stop></linearGradient></defs><defs><linearGradient id="grad2_3" x1="0%" y1="0%" x2="66.7%" y2="100%"><stop offset="20%" stop-color="#ffe5c6" stop-opacity="1"></stop><stop offset="80%" stop-color="#ffd29a" stop-opacity="1"></stop></linearGradient></defs><defs><linearGradient id="grad2_4" x1="0%" y1="0%" x2="66.7%" y2="100%"><stop offset="20%" stop-color="#ffe5c6" stop-opacity="1"></stop><stop offset="80%" stop-color="#fff8f2" stop-opacity="1"></stop></linearGradient></defs><g transform="translate(900, 0)"><path d="M0 351.5C-56.6 334.4 -113.1 317.3 -167.5 290.1C-221.9 263 -274.1 225.8 -304.4 175.8C-334.8 125.7 -343.1 62.9 -351.5 0L0 0Z" fill="#ffeedc"></path><path d="M0 281.2C-45.2 267.5 -90.5 253.8 -134 232.1C-177.5 210.4 -219.3 180.6 -243.6 140.6C-267.8 100.6 -274.5 50.3 -281.2 0L0 0Z" fill="#ffdbb0"></path><path d="M0 210.9C-33.9 200.6 -67.9 190.4 -100.5 174.1C-133.1 157.8 -164.5 135.5 -182.7 105.5C-200.9 75.4 -205.9 37.7 -210.9 0L0 0Z" fill="#ffc984"></path><path d="M0 140.6C-22.6 133.8 -45.2 126.9 -67 116C-88.8 105.2 -109.7 90.3 -121.8 70.3C-133.9 50.3 -137.3 25.1 -140.6 0L0 0Z" fill="#ffb756"></path><path d="M0 70.3C-11.3 66.9 -22.6 63.5 -33.5 58C-44.4 52.6 -54.8 45.2 -60.9 35.2C-67 25.1 -68.6 12.6 -70.3 0L0 0Z" fill="#fbae3c"></path></g><g transform="translate(0, 600)"><path d="M0 -351.5C56.6 -334.4 113.1 -317.3 167.5 -290.1C221.9 -263 274.1 -225.8 304.4 -175.8C334.8 -125.7 343.1 -62.9 351.5 0L0 0Z" fill="#ffeedc"></path><path d="M0 -281.2C45.2 -267.5 90.5 -253.8 134 -232.1C177.5 -210.4 219.3 -180.6 243.6 -140.6C267.8 -100.6 274.5 -50.3 281.2 0L0 0Z" fill="#ffdbb0"></path><path d="M0 -210.9C33.9 -200.6 67.9 -190.4 100.5 -174.1C133.1 -157.8 164.5 -135.5 182.7 -105.5C200.9 -75.4 205.9 -37.7 210.9 0L0 0Z" fill="#ffc984"></path><path d="M0 -140.6C22.6 -133.8 45.2 -126.9 67 -116C88.8 -105.2 109.7 -90.3 121.8 -70.3C133.9 -50.3 137.3 -25.1 140.6 0L0 0Z" fill="#ffb756"></path><path d="M0 -70.3C11.3 -66.9 22.6 -63.5 33.5 -58C44.4 -52.6 54.8 -45.2 60.9 -35.2C67 -25.1 68.6 -12.6 70.3 0L0 0Z" fill="#fbae3c"></path></g></svg>