<svg xmlns:dc="http://purl.org/dc/elements/1.1/" xmlns:cc="http://creativecommons.org/ns#" xmlns:rdf="http://www.w3.org/1999/02/22-rdf-syntax-ns#" xmlns:svg="http://www.w3.org/2000/svg" xmlns="http://www.w3.org/2000/svg" xmlns:xlink="http://www.w3.org/1999/xlink" id="svg185255" viewBox="0 0 1024 768" height="768px" width="1024px" version="1.1">
  <metadata id="metadata185261">
    <rdf:rdf>
      <cc:work rdf:about="">
        <dc:format>image/svg+xml</dc:format>
        <dc:type rdf:resource="http://purl.org/dc/dcmitype/StillImage"></dc:type>
      </cc:work>
    </rdf:rdf>
  </metadata>
  <defs id="defs185259"></defs>
  <linearGradient spreadMethod="pad" y2="30%" x2="-10%" y1="120%" x1="30%" id="3d_gradient2-logo-26be6cf3-9331-4e9d-979c-01e993310931">
    <stop id="stop185236" stop-opacity="1" stop-color="#ffffff" offset="0%"></stop>
    <stop id="stop185238" stop-opacity="1" stop-color="#000000" offset="100%"></stop>
  </linearGradient>
  <linearGradient gradientTransform="rotate(-30)" spreadMethod="pad" y2="30%" x2="-10%" y1="120%" x1="30%" id="3d_gradient3-logo-26be6cf3-9331-4e9d-979c-01e993310931">
    <stop id="stop185241" stop-opacity="1" stop-color="#ffffff" offset="0%"></stop>
    <stop id="stop185243" stop-opacity="1" stop-color="#cccccc" offset="50%"></stop>
    <stop id="stop185245" stop-opacity="1" stop-color="#000000" offset="100%"></stop>
  </linearGradient>
  <g id="logo-group">
    <image xlink:href="" id="container" x="272" y="144" width="480" height="480" transform="translate(0 0)" style="display: none;"></image>
    <g id="logo-center" transform="translate(-1.1368683772161603e-13 0)">
      <image xlink:href="" id="icon_container" x="0" y="0" style="display: none;"></image>
      <g id="slogan" style="font-style:normal;font-weight:400;font-size:32px;line-height:1;font-family:'Open Sans';font-variant-ligatures:none;text-align:center;text-anchor:middle" transform="translate(0 0)"></g>
      <g id="title" style="font-style:normal;font-weight:normal;font-size:72px;line-height:1;font-family:'Brandmark Sans 5 Spectrum';font-variant-ligatures:normal;text-align:center;text-anchor:middle" transform="translate(0 0)">
        <g id="path185264" aria-label="^P" transform="translate(0 319.63599999999997) translate(244.1028991 28.32800000000001) scale(1.43) translate(-324.65937 50.4)"> <rect x="75.2088" y="75.20882" class="c3" width="21.69232" height="49.5824" transform="translate(249.450576 -125.60876)" stroke-width="0" stroke-linejoin="miter" stroke-miterlimit="2" fill="#937027" stroke="#937027"></rect> <path class="c1" d="M112.39563,75.20876H75.2088v24.7912h37.18683c6.84589,0,12.39557-5.54968,12.39557-12.39557 S119.24152,75.20876,112.39563,75.20876z" transform="translate(249.450576 -125.60876)" stroke-width="0" stroke-linejoin="miter" stroke-miterlimit="2" fill="#f2cc5d" stroke="#f2cc5d"></path> <rect x="75.20879" y="75.2088" class="c2" width="21.69226" height="24.79114" transform="translate(249.450576 -125.60876)" stroke-width="0" stroke-linejoin="miter" stroke-miterlimit="2" fill="#d5a540" stroke="#d5a540"></rect> </g>
        <g id="path185266" aria-label="^O" transform="translate(0 319.63599999999997) translate(321.524 28.32800000000001) scale(1.43) translate(-378.8 50.4)"> <circle class="c3" cx="100" cy="99.99999" r="24.7912" transform="translate(303.591201 -125.608792)" stroke-width="0" stroke-linejoin="miter" stroke-miterlimit="2" fill="#937027" stroke="#937027"></circle> <circle class="c2" cx="100" cy="99.99999" r="12.3956" transform="translate(303.591201 -125.608792)" stroke-width="0" stroke-linejoin="miter" stroke-miterlimit="2" fill="#d5a540" stroke="#d5a540"></circle> </g>
        <g id="path185268" aria-label="^P" transform="translate(0 319.63599999999997) translate(398.744 28.32800000000001) scale(1.43) translate(-432.8 50.4)"> <rect x="75.2088" y="75.20882" class="c3" width="21.69232" height="49.5824" transform="translate(357.591206 -125.60876)" stroke-width="0" stroke-linejoin="miter" stroke-miterlimit="2" fill="#937027" stroke="#937027"></rect> <path class="c1" d="M112.39563,75.20876H75.2088v24.7912h37.18683c6.84589,0,12.39557-5.54968,12.39557-12.39557 S119.24152,75.20876,112.39563,75.20876z" transform="translate(357.591206 -125.60876)" stroke-width="0" stroke-linejoin="miter" stroke-miterlimit="2" fill="#f2cc5d" stroke="#f2cc5d"></path> <rect x="75.20879" y="75.2088" class="c2" width="21.69226" height="24.79114" transform="translate(357.591206 -125.60876)" stroke-width="0" stroke-linejoin="miter" stroke-miterlimit="2" fill="#d5a540" stroke="#d5a540"></rect> </g>
        <g id="path185270" aria-label="^C" transform="translate(0 319.63599999999997) translate(476.1650866000001 28.32800000000001) scale(1.43) translate(-486.94062 50.4)"> <path class="c1" d="M100,75.20874c-13.69177,0-24.7912,11.09937-24.7912,24.79126S86.30823,124.79126,100,124.79126h24.7912 V75.20874H100z" transform="translate(411.73182 -125.60874)" stroke-width="0" stroke-linejoin="miter" stroke-miterlimit="2" fill="#f2cc5d" stroke="#f2cc5d"></path> </g>
        <g id="path185272" aria-label="^O" transform="translate(0 319.63599999999997) translate(553.3850866 28.32800000000001) scale(1.43) translate(-540.94062 50.4)"> <circle class="c3" cx="100" cy="99.99999" r="24.7912" transform="translate(465.731821 -125.608792)" stroke-width="0" stroke-linejoin="miter" stroke-miterlimit="2" fill="#937027" stroke="#937027"></circle> <circle class="c2" cx="100" cy="99.99999" r="12.3956" transform="translate(465.731821 -125.608792)" stroke-width="0" stroke-linejoin="miter" stroke-miterlimit="2" fill="#d5a540" stroke="#d5a540"></circle> </g>
        <g id="path185274" aria-label="^D" transform="translate(0 319.63599999999997) translate(630.6050866 28.32800000000001) scale(1.43) translate(-594.94062 50.4)"> <path class="c3" d="M100.00002,124.79123H75.20876V75.20877h24.79126c13.6918,0,24.7912,11.0994,24.7912,24.79121v0.00005 C124.79122,113.69183,113.69183,124.79123,100.00002,124.79123z" transform="translate(519.73186 -125.60877)" stroke-width="0" stroke-linejoin="miter" stroke-miterlimit="2" fill="#937027" stroke="#937027"></path> <path class="c2" d="M75.20878,124.79119h24.79126c13.69177,0,24.7912-11.09937,24.7912-24.7912v-0.00006H75.20878V124.79119z" transform="translate(519.73186 -125.60877)" stroke-width="0" stroke-linejoin="miter" stroke-miterlimit="2" fill="#d5a540" stroke="#d5a540"></path> </g>
        <g id="path185276" aria-label="^E" transform="translate(0 319.63599999999997) translate(707.8250866000001 28.32800000000001) scale(1.43) translate(-648.94062 50.4)"> <rect x="75.20878" y="112.39566" class="c3" width="49.5824" height="12.39551" transform="translate(573.731842 -125.608771)" stroke-width="0" stroke-linejoin="miter" stroke-miterlimit="2" fill="#937027" stroke="#937027"></rect> <rect x="75.20878" y="93.80215" class="c3" width="49.5824" height="12.39563" transform="translate(573.731842 -125.608771)" stroke-width="0" stroke-linejoin="miter" stroke-miterlimit="2" fill="#937027" stroke="#937027"></rect> <rect x="75.20878" y="75.20877" class="c3" width="49.5824" height="12.39563" transform="translate(573.731842 -125.608771)" stroke-width="0" stroke-linejoin="miter" stroke-miterlimit="2" fill="#937027" stroke="#937027"></rect> <rect x="75.20884" y="75.20877" class="c1" width="17.66669" height="49.5824" transform="translate(573.731842 -125.608771)" stroke-width="0" stroke-linejoin="miter" stroke-miterlimit="2" fill="#f2cc5d" stroke="#f2cc5d"></rect> <rect x="75.20882" y="75.20878" class="c2" width="17.66669" height="12.39557" transform="translate(573.731842 -125.608771)" stroke-width="0" stroke-linejoin="miter" stroke-miterlimit="2" fill="#d5a540" stroke="#d5a540"></rect> <rect x="75.20882" y="93.80216" class="c2" width="17.66669" height="12.39563" transform="translate(573.731842 -125.608771)" stroke-width="0" stroke-linejoin="miter" stroke-miterlimit="2" fill="#d5a540" stroke="#d5a540"></rect> <rect x="75.20882" y="112.39561" class="c2" width="17.66669" height="12.39557" transform="translate(573.731842 -125.608771)" stroke-width="0" stroke-linejoin="miter" stroke-miterlimit="2" fill="#d5a540" stroke="#d5a540"></rect> </g>
             </g>
      <image xlink:href="" id="icon" x="0" y="0" style="display: none;"></image>
    </g>
  </g>
</svg>