<svg id="visual" viewBox="0 0 900 600" width="900" height="600" xmlns="http://www.w3.org/2000/svg" xmlns:xlink="http://www.w3.org/1999/xlink" version="1.1"><g stroke-width="1" stroke-linejoin="bevel"><path d="M460 262L494 291L509 263Z" fill="#fcaa37" stroke="#fcaa37"></path><path d="M460 262L409 331L494 291Z" fill="#fb9f2d" stroke="#fb9f2d"></path><path d="M520 381L585 304L494 291Z" fill="#f98e20" stroke="#f98e20"></path><path d="M494 291L585 304L509 263Z" fill="#fcaa37" stroke="#fcaa37"></path><path d="M585 304L591 218L509 263Z" fill="#fcaf3c" stroke="#fcaf3c"></path><path d="M471 115L391 164L460 262Z" fill="#f7770f" stroke="#f7770f"></path><path d="M496 395L520 381L494 291Z" fill="#fcaf3c" stroke="#fcaf3c"></path><path d="M409 331L496 395L494 291Z" fill="#fa9424" stroke="#fa9424"></path><path d="M460 262L355 298L409 331Z" fill="#f7770f" stroke="#f7770f"></path><path d="M409 331L432 429L496 395Z" fill="#fb9f2d" stroke="#fb9f2d"></path><path d="M344 204L346 261L460 262Z" fill="#fb9f2d" stroke="#fb9f2d"></path><path d="M460 262L346 261L355 298Z" fill="#fcaf3c" stroke="#fcaf3c"></path><path d="M471 115L460 262L509 263Z" fill="#fa9424" stroke="#fa9424"></path><path d="M346 327L352 315L275 327Z" fill="#f98e20" stroke="#f98e20"></path><path d="M355 298L352 315L409 331Z" fill="#fa9424" stroke="#fa9424"></path><path d="M275 327L352 315L355 298Z" fill="#f9891b" stroke="#f9891b"></path><path d="M352 315L346 327L409 331Z" fill="#fb9f2d" stroke="#fb9f2d"></path><path d="M551 112L471 115L509 263Z" fill="#f98e20" stroke="#f98e20"></path><path d="M391 164L344 204L460 262Z" fill="#fa9424" stroke="#fa9424"></path><path d="M346 261L275 327L355 298Z" fill="#f9891b" stroke="#f9891b"></path><path d="M585 304L635 202L591 218Z" fill="#f88317" stroke="#f88317"></path><path d="M591 218L551 112L509 263Z" fill="#f98e20" stroke="#f98e20"></path><path d="M346 327L432 429L409 331Z" fill="#f87d13" stroke="#f87d13"></path><path d="M635 202L551 112L591 218Z" fill="#fcaf3c" stroke="#fcaf3c"></path><path d="M641 431L647 325L585 304Z" fill="#fb9f2d" stroke="#fb9f2d"></path><path d="M585 304L647 325L635 202Z" fill="#fa9a29" stroke="#fa9a29"></path><path d="M641 431L585 304L520 381Z" fill="#f88317" stroke="#f88317"></path><path d="M641 431L520 381L581 485Z" fill="#fb9f2d" stroke="#fb9f2d"></path><path d="M551 112L470 79L471 115Z" fill="#f9891b" stroke="#f9891b"></path><path d="M471 115L381 70L391 164Z" fill="#f9891b" stroke="#f9891b"></path><path d="M391 164L277 105L344 204Z" fill="#f7770f" stroke="#f7770f"></path><path d="M647 325L683 215L635 202Z" fill="#f7770f" stroke="#f7770f"></path><path d="M635 202L629 96L551 112Z" fill="#fa9a29" stroke="#fa9a29"></path><path d="M237 277L275 327L346 261Z" fill="#fa9a29" stroke="#fa9a29"></path><path d="M346 327L303 446L432 429Z" fill="#f98e20" stroke="#f98e20"></path><path d="M275 327L276 341L346 327Z" fill="#f88317" stroke="#f88317"></path><path d="M470 79L381 70L471 115Z" fill="#fcaf3c" stroke="#fcaf3c"></path><path d="M344 204L263 206L346 261Z" fill="#fcaa37" stroke="#fcaa37"></path><path d="M276 341L281 363L346 327Z" fill="#fa9a29" stroke="#fa9a29"></path><path d="M710 201L629 96L635 202Z" fill="#f88317" stroke="#f88317"></path><path d="M551 112L498 26L470 79Z" fill="#fcaf3c" stroke="#fcaf3c"></path><path d="M558 490L520 381L496 395Z" fill="#f9891b" stroke="#f9891b"></path><path d="M647 325L707 329L683 215Z" fill="#fa9a29" stroke="#fa9a29"></path><path d="M277 105L263 206L344 204Z" fill="#f87d13" stroke="#f87d13"></path><path d="M275 327L237 277L276 341Z" fill="#fcaa37" stroke="#fcaa37"></path><path d="M686 403L707 329L647 325Z" fill="#f88317" stroke="#f88317"></path><path d="M570 505L558 490L557 555Z" fill="#fb9f2d" stroke="#fb9f2d"></path><path d="M432 429L558 490L496 395Z" fill="#f7770f" stroke="#f7770f"></path><path d="M707 329L710 201L683 215Z" fill="#f7770f" stroke="#f7770f"></path><path d="M683 215L710 201L635 202Z" fill="#f9891b" stroke="#f9891b"></path><path d="M558 490L581 485L520 381Z" fill="#fb9f2d" stroke="#fb9f2d"></path><path d="M576 0L498 26L551 112Z" fill="#f88317" stroke="#f88317"></path><path d="M470 79L447 0L381 70Z" fill="#f88317" stroke="#f88317"></path><path d="M641 431L686 403L647 325Z" fill="#f88317" stroke="#f88317"></path><path d="M708 424L686 403L641 431Z" fill="#f98e20" stroke="#f98e20"></path><path d="M123 427L207 497L281 363Z" fill="#f9891b" stroke="#f9891b"></path><path d="M263 206L237 277L346 261Z" fill="#f98e20" stroke="#f98e20"></path><path d="M558 490L570 505L581 485Z" fill="#fa9424" stroke="#fa9424"></path><path d="M659 528L708 424L641 431Z" fill="#f9891b" stroke="#f9891b"></path><path d="M557 555L558 490L418 559Z" fill="#fb9f2d" stroke="#fb9f2d"></path><path d="M261 481L303 446L281 363Z" fill="#f98e20" stroke="#f98e20"></path><path d="M281 363L303 446L346 327Z" fill="#fb9f2d" stroke="#fb9f2d"></path><path d="M686 403L728 353L707 329Z" fill="#fcaf3c" stroke="#fcaf3c"></path><path d="M852 244L768 170L710 201Z" fill="#f88317" stroke="#f88317"></path><path d="M684 62L648 67L629 96Z" fill="#fa9a29" stroke="#fa9a29"></path><path d="M629 96L576 0L551 112Z" fill="#f7770f" stroke="#f7770f"></path><path d="M345 0L277 105L381 70Z" fill="#f9891b" stroke="#f9891b"></path><path d="M381 70L277 105L391 164Z" fill="#fcaf3c" stroke="#fcaf3c"></path><path d="M263 206L198 147L237 277Z" fill="#fb9f2d" stroke="#fb9f2d"></path><path d="M303 446L335 489L432 429Z" fill="#fcaf3c" stroke="#fcaf3c"></path><path d="M303 446L333 489L335 489Z" fill="#f9891b" stroke="#f9891b"></path><path d="M418 559L558 490L432 429Z" fill="#f88317" stroke="#f88317"></path><path d="M576 0L447 0L498 26Z" fill="#f87d13" stroke="#f87d13"></path><path d="M498 26L447 0L470 79Z" fill="#f9891b" stroke="#f9891b"></path><path d="M659 528L641 431L581 485Z" fill="#fba432" stroke="#fba432"></path><path d="M686 403L708 424L728 353Z" fill="#fcaf3c" stroke="#fcaf3c"></path><path d="M648 67L576 0L629 96Z" fill="#f98e20" stroke="#f98e20"></path><path d="M710 201L684 62L629 96Z" fill="#f9891b" stroke="#f9891b"></path><path d="M648 67L644 0L576 0Z" fill="#fb9f2d" stroke="#fb9f2d"></path><path d="M418 559L432 429L335 489Z" fill="#fcaf3c" stroke="#fcaf3c"></path><path d="M570 505L659 528L581 485Z" fill="#f88317" stroke="#f88317"></path><path d="M335 600L418 559L335 489Z" fill="#fa9424" stroke="#fa9424"></path><path d="M799 339L710 201L707 329Z" fill="#f98e20" stroke="#f98e20"></path><path d="M710 201L769 132L684 62Z" fill="#fa9a29" stroke="#fa9a29"></path><path d="M447 0L345 0L381 70Z" fill="#fcaa37" stroke="#fcaa37"></path><path d="M303 446L261 481L333 489Z" fill="#fcaf3c" stroke="#fcaf3c"></path><path d="M333 489L335 600L335 489Z" fill="#f88317" stroke="#f88317"></path><path d="M207 497L261 481L281 363Z" fill="#fa9a29" stroke="#fa9a29"></path><path d="M249 42L198 147L277 105Z" fill="#fba432" stroke="#fba432"></path><path d="M277 105L198 147L263 206Z" fill="#fcaa37" stroke="#fcaa37"></path><path d="M125 323L281 363L276 341Z" fill="#f87d13" stroke="#f87d13"></path><path d="M686 0L644 0L684 62Z" fill="#f87d13" stroke="#f87d13"></path><path d="M684 62L644 0L648 67Z" fill="#fa9424" stroke="#fa9424"></path><path d="M557 555L659 528L570 505Z" fill="#fb9f2d" stroke="#fb9f2d"></path><path d="M768 170L769 132L710 201Z" fill="#fba432" stroke="#fba432"></path><path d="M778 425L799 339L728 353Z" fill="#f9891b" stroke="#f9891b"></path><path d="M728 353L799 339L707 329Z" fill="#f9891b" stroke="#f9891b"></path><path d="M900 162L857 69L769 132Z" fill="#fa9a29" stroke="#fa9a29"></path><path d="M778 425L728 353L708 424Z" fill="#fcaa37" stroke="#fcaa37"></path><path d="M345 0L249 42L277 105Z" fill="#f98e20" stroke="#f98e20"></path><path d="M207 497L264 511L261 481Z" fill="#f7770f" stroke="#f7770f"></path><path d="M261 481L264 511L333 489Z" fill="#f87d13" stroke="#f87d13"></path><path d="M335 600L476 600L418 559Z" fill="#fcaf3c" stroke="#fcaf3c"></path><path d="M418 559L476 600L557 555Z" fill="#fba432" stroke="#fba432"></path><path d="M557 555L583 600L659 528Z" fill="#fcaf3c" stroke="#fcaf3c"></path><path d="M857 69L772 100L769 132Z" fill="#fcaf3c" stroke="#fcaf3c"></path><path d="M769 132L772 100L684 62Z" fill="#fb9f2d" stroke="#fb9f2d"></path><path d="M796 476L778 425L708 424Z" fill="#f87d13" stroke="#f87d13"></path><path d="M756 0L686 0L684 62Z" fill="#fcaf3c" stroke="#fcaf3c"></path><path d="M476 600L536 600L557 555Z" fill="#f9891b" stroke="#f9891b"></path><path d="M536 600L583 600L557 555Z" fill="#fa9a29" stroke="#fa9a29"></path><path d="M796 476L796 429L778 425Z" fill="#fb9f2d" stroke="#fb9f2d"></path><path d="M796 476L708 424L659 528Z" fill="#fcaf3c" stroke="#fcaf3c"></path><path d="M778 425L796 429L799 339Z" fill="#f7770f" stroke="#f7770f"></path><path d="M345 0L250 0L249 42Z" fill="#fba432" stroke="#fba432"></path><path d="M140 125L122 185L198 147Z" fill="#f7770f" stroke="#f7770f"></path><path d="M125 323L276 341L237 277Z" fill="#fcaa37" stroke="#fcaa37"></path><path d="M264 511L335 600L333 489Z" fill="#f9891b" stroke="#f9891b"></path><path d="M122 185L237 277L198 147Z" fill="#fa9a29" stroke="#fa9a29"></path><path d="M96 255L125 323L237 277Z" fill="#f98e20" stroke="#f98e20"></path><path d="M248 600L335 600L264 511Z" fill="#fba432" stroke="#fba432"></path><path d="M866 312L852 244L799 339Z" fill="#f9891b" stroke="#f9891b"></path><path d="M799 339L852 244L710 201Z" fill="#fb9f2d" stroke="#fb9f2d"></path><path d="M140 125L198 147L140 59Z" fill="#f7770f" stroke="#f7770f"></path><path d="M140 59L198 147L249 42Z" fill="#fa9a29" stroke="#fa9a29"></path><path d="M765 600L796 476L659 528Z" fill="#f7770f" stroke="#f7770f"></path><path d="M900 353L866 312L799 339Z" fill="#fcaa37" stroke="#fcaa37"></path><path d="M583 600L662 600L659 528Z" fill="#fba432" stroke="#fba432"></path><path d="M857 69L756 0L772 100Z" fill="#f87d13" stroke="#f87d13"></path><path d="M772 100L756 0L684 62Z" fill="#fa9a29" stroke="#fa9a29"></path><path d="M250 0L210 0L249 42Z" fill="#fb9f2d" stroke="#fb9f2d"></path><path d="M900 325L866 312L900 353Z" fill="#f88317" stroke="#f88317"></path><path d="M0 203L96 255L122 185Z" fill="#f98e20" stroke="#f98e20"></path><path d="M122 185L96 255L237 277Z" fill="#f7770f" stroke="#f7770f"></path><path d="M210 0L201 0L249 42Z" fill="#fa9424" stroke="#fa9424"></path><path d="M96 255L95 304L125 323Z" fill="#fa9424" stroke="#fa9424"></path><path d="M125 323L123 427L281 363Z" fill="#fa9424" stroke="#fa9424"></path><path d="M106 421L123 427L125 323Z" fill="#fa9a29" stroke="#fa9a29"></path><path d="M201 0L140 59L249 42Z" fill="#fa9a29" stroke="#fa9a29"></path><path d="M140 125L40 107L122 185Z" fill="#f87d13" stroke="#f87d13"></path><path d="M204 600L264 511L207 497Z" fill="#fba432" stroke="#fba432"></path><path d="M204 600L248 600L264 511Z" fill="#fcaf3c" stroke="#fcaf3c"></path><path d="M58 339L106 421L125 323Z" fill="#fcaa37" stroke="#fcaa37"></path><path d="M188 600L204 600L207 497Z" fill="#fba432" stroke="#fba432"></path><path d="M900 325L900 266L866 312Z" fill="#fa9424" stroke="#fa9424"></path><path d="M866 312L900 266L852 244Z" fill="#fcaa37" stroke="#fcaa37"></path><path d="M900 162L769 132L768 170Z" fill="#fcaf3c" stroke="#fcaf3c"></path><path d="M900 353L799 339L796 429Z" fill="#f87d13" stroke="#f87d13"></path><path d="M900 162L768 170L852 244Z" fill="#fcaf3c" stroke="#fcaf3c"></path><path d="M900 496L900 353L796 429Z" fill="#f9891b" stroke="#f9891b"></path><path d="M900 266L900 162L852 244Z" fill="#fcaa37" stroke="#fcaa37"></path><path d="M0 315L58 339L95 304Z" fill="#fa9a29" stroke="#fa9a29"></path><path d="M95 304L58 339L125 323Z" fill="#f98e20" stroke="#f98e20"></path><path d="M0 315L95 304L96 255Z" fill="#fba432" stroke="#fba432"></path><path d="M58 339L79 423L106 421Z" fill="#fa9424" stroke="#fa9424"></path><path d="M106 421L79 423L123 427Z" fill="#fba432" stroke="#fba432"></path><path d="M188 600L207 497L112 566Z" fill="#fa9424" stroke="#fa9424"></path><path d="M662 600L765 600L659 528Z" fill="#fb9f2d" stroke="#fb9f2d"></path><path d="M796 476L900 496L796 429Z" fill="#f7770f" stroke="#f7770f"></path><path d="M112 566L207 497L123 427Z" fill="#f98e20" stroke="#f98e20"></path><path d="M201 0L99 40L140 59Z" fill="#fb9f2d" stroke="#fb9f2d"></path><path d="M140 59L99 40L140 125Z" fill="#fba432" stroke="#fba432"></path><path d="M765 600L788 600L796 476Z" fill="#f87d13" stroke="#f87d13"></path><path d="M900 162L900 92L857 69Z" fill="#f88317" stroke="#f88317"></path><path d="M857 69L871 0L756 0Z" fill="#f98e20" stroke="#f98e20"></path><path d="M788 600L849 539L796 476Z" fill="#fa9a29" stroke="#fa9a29"></path><path d="M900 0L871 0L857 69Z" fill="#fa9424" stroke="#fa9424"></path><path d="M99 40L40 107L140 125Z" fill="#f98e20" stroke="#f98e20"></path><path d="M900 556L900 496L849 539Z" fill="#f98e20" stroke="#f98e20"></path><path d="M849 539L900 496L796 476Z" fill="#fba432" stroke="#fba432"></path><path d="M23 492L112 566L123 427Z" fill="#fba432" stroke="#fba432"></path><path d="M23 492L123 427L79 423Z" fill="#fa9424" stroke="#fa9424"></path><path d="M112 566L130 600L188 600Z" fill="#fcaa37" stroke="#fcaa37"></path><path d="M0 203L0 315L96 255Z" fill="#f9891b" stroke="#f9891b"></path><path d="M58 339L0 424L79 423Z" fill="#fcaf3c" stroke="#fcaf3c"></path><path d="M0 170L0 203L122 185Z" fill="#f87d13" stroke="#f87d13"></path><path d="M40 107L0 170L122 185Z" fill="#fa9424" stroke="#fa9424"></path><path d="M900 92L900 0L857 69Z" fill="#f87d13" stroke="#f87d13"></path><path d="M900 600L900 556L849 539Z" fill="#fa9a29" stroke="#fa9a29"></path><path d="M0 315L0 424L58 339Z" fill="#fb9f2d" stroke="#fb9f2d"></path><path d="M112 566L0 600L130 600Z" fill="#fb9f2d" stroke="#fb9f2d"></path><path d="M0 0L0 110L40 107Z" fill="#fcaa37" stroke="#fcaa37"></path><path d="M40 107L0 110L0 170Z" fill="#fa9424" stroke="#fa9424"></path><path d="M0 424L23 492L79 423Z" fill="#fa9424" stroke="#fa9424"></path><path d="M201 0L42 0L99 40Z" fill="#f87d13" stroke="#f87d13"></path><path d="M99 40L42 0L40 107Z" fill="#f7770f" stroke="#f7770f"></path><path d="M788 600L900 600L849 539Z" fill="#fcaf3c" stroke="#fcaf3c"></path><path d="M0 424L0 498L23 492Z" fill="#f98e20" stroke="#f98e20"></path><path d="M23 492L0 600L112 566Z" fill="#f88317" stroke="#f88317"></path><path d="M0 498L0 505L23 492Z" fill="#f9891b" stroke="#f9891b"></path><path d="M42 0L0 0L40 107Z" fill="#f9891b" stroke="#f9891b"></path><path d="M0 505L0 600L23 492Z" fill="#fb9f2d" stroke="#fb9f2d"></path></g></svg>